<mxfile host="app.diagrams.net" modified="2022-11-08T07:28:23.510Z" agent="5.0 (Windows NT 10.0; Win64; x64) AppleWebKit/537.36 (KHTML, like Gecko) Chrome/105.0.0.0 Safari/537.36 OPR/91.0.4516.106" etag="kHxAYgU-NCemgL4TyP7W" version="20.5.3" type="github">
  <diagram id="prtHgNgQTEPvFCAcTncT" name="Page-1">
    <mxGraphModel dx="868" dy="521" grid="1" gridSize="10" guides="1" tooltips="1" connect="1" arrows="1" fold="1" page="1" pageScale="1" pageWidth="827" pageHeight="1169" math="0" shadow="0">
      <root>
        <mxCell id="0" />
        <mxCell id="1" parent="0" />
        <mxCell id="LL_x_WGqo3-1e6lpiuNf-2" value="&lt;font face=&quot;Times New Roman&quot; style=&quot;font-size: 18px;&quot;&gt;User Experience(UX) Design&amp;nbsp;&lt;br&gt;Ananya &amp;amp; Suvojit&lt;/font&gt;" style="rounded=0;whiteSpace=wrap;html=1;" vertex="1" parent="1">
          <mxGeometry x="40" y="440" width="160" height="140" as="geometry" />
        </mxCell>
        <mxCell id="LL_x_WGqo3-1e6lpiuNf-3" value="User Interface(UI)&lt;br&gt;Aryadip &amp;amp; Luvkush" style="rounded=0;whiteSpace=wrap;html=1;fontFamily=Times New Roman;fontSize=18;" vertex="1" parent="1">
          <mxGeometry x="240" y="440" width="160" height="140" as="geometry" />
        </mxCell>
        <mxCell id="LL_x_WGqo3-1e6lpiuNf-4" value="Application Programming Interface (API)&lt;br&gt;Dibyendu &amp;amp; Subhankar" style="rounded=0;whiteSpace=wrap;html=1;fontFamily=Times New Roman;fontSize=18;" vertex="1" parent="1">
          <mxGeometry x="440" y="440" width="160" height="140" as="geometry" />
        </mxCell>
        <mxCell id="LL_x_WGqo3-1e6lpiuNf-5" value="Database Design(DB)&lt;br&gt;&lt;br&gt;Vishal &amp;amp; Somnath" style="rounded=0;whiteSpace=wrap;html=1;fontFamily=Times New Roman;fontSize=18;" vertex="1" parent="1">
          <mxGeometry x="640" y="440" width="160" height="140" as="geometry" />
        </mxCell>
        <mxCell id="LL_x_WGqo3-1e6lpiuNf-9" value="Tools&amp;nbsp;&lt;br&gt;&lt;br&gt;&lt;a style=&quot;color: rgb(26, 13, 171); text-decoration-line: none; -webkit-tap-highlight-color: rgba(0, 0, 0, 0.1); outline: 0px; font-family: arial, sans-serif; font-size: small; text-align: left; background-color: rgb(255, 255, 255);&quot; data-jrwt=&quot;1&quot; data-cthref=&quot;/url?sa=t&amp;amp;rct=j&amp;amp;q=&amp;amp;esrc=s&amp;amp;source=web&amp;amp;cd=&amp;amp;ved=2ahUKEwimpeWu_J37AhVpSGwGHYtFAUUQFnoECBQQAQ&amp;amp;url=https%3A%2F%2Fwww.thesaurus.com%2Fe%2Fgrammar%2Fbullet-point%2F&amp;amp;usg=AOvVaw36HovnqZUQ4N3tA4n6XIDp&quot; data-ctbtn=&quot;0&quot; data-ved=&quot;2ahUKEwimpeWu_J37AhVpSGwGHYtFAUUQFnoECBQQAQ&quot; data-usg=&quot;AOvVaw36HovnqZUQ4N3tA4n6XIDp&quot; data-jsarwt=&quot;1&quot; href=&quot;https://www.google.com/url?sa=t&amp;amp;rct=j&amp;amp;q=&amp;amp;esrc=s&amp;amp;source=web&amp;amp;cd=&amp;amp;ved=2ahUKEwimpeWu_J37AhVpSGwGHYtFAUUQFnoECBQQAQ&amp;amp;url=https%3A%2F%2Fwww.thesaurus.com%2Fe%2Fgrammar%2Fbullet-point%2F&amp;amp;usg=AOvVaw36HovnqZUQ4N3tA4n6XIDp&quot;&gt;&lt;h3 style=&quot;font-weight: 400; margin: 0px 0px 3px; padding: 5px 0px 0px; font-size: 20px; line-height: 1.3; display: inline-block;&quot; class=&quot;LC20lb MBeuO DKV0Md&quot;&gt;•&lt;/h3&gt;&lt;/a&gt;&amp;nbsp;Excel Sheet&amp;nbsp;&amp;nbsp;&lt;a style=&quot;color: rgb(26, 13, 171); text-decoration-line: none; -webkit-tap-highlight-color: rgba(0, 0, 0, 0.1); outline: 0px; font-family: arial, sans-serif; font-size: small; text-align: left; background-color: rgb(255, 255, 255);&quot; data-jrwt=&quot;1&quot; data-cthref=&quot;/url?sa=t&amp;amp;rct=j&amp;amp;q=&amp;amp;esrc=s&amp;amp;source=web&amp;amp;cd=&amp;amp;ved=2ahUKEwimpeWu_J37AhVpSGwGHYtFAUUQFnoECBQQAQ&amp;amp;url=https%3A%2F%2Fwww.thesaurus.com%2Fe%2Fgrammar%2Fbullet-point%2F&amp;amp;usg=AOvVaw36HovnqZUQ4N3tA4n6XIDp&quot; data-ctbtn=&quot;0&quot; data-ved=&quot;2ahUKEwimpeWu_J37AhVpSGwGHYtFAUUQFnoECBQQAQ&quot; data-usg=&quot;AOvVaw36HovnqZUQ4N3tA4n6XIDp&quot; data-jsarwt=&quot;1&quot; href=&quot;https://www.google.com/url?sa=t&amp;amp;rct=j&amp;amp;q=&amp;amp;esrc=s&amp;amp;source=web&amp;amp;cd=&amp;amp;ved=2ahUKEwimpeWu_J37AhVpSGwGHYtFAUUQFnoECBQQAQ&amp;amp;url=https%3A%2F%2Fwww.thesaurus.com%2Fe%2Fgrammar%2Fbullet-point%2F&amp;amp;usg=AOvVaw36HovnqZUQ4N3tA4n6XIDp&quot;&gt;&lt;h3 style=&quot;font-weight: 400; margin: 0px 0px 3px; padding: 5px 0px 0px; font-size: 20px; line-height: 1.3; display: inline-block;&quot; class=&quot;LC20lb MBeuO DKV0Md&quot;&gt;•&lt;/h3&gt;&lt;/a&gt;Draw Io" style="rounded=1;whiteSpace=wrap;html=1;fontFamily=Times New Roman;fontSize=18;" vertex="1" parent="1">
          <mxGeometry x="30" y="640" width="170" height="140" as="geometry" />
        </mxCell>
        <mxCell id="LL_x_WGqo3-1e6lpiuNf-10" value="Tools&lt;br&gt;&lt;a style=&quot;color: rgb(26, 13, 171); -webkit-tap-highlight-color: rgba(0, 0, 0, 0.1); outline: 0px; font-family: arial, sans-serif; font-size: small; text-align: left; background-color: rgb(255, 255, 255);&quot; data-jrwt=&quot;1&quot; data-cthref=&quot;/url?sa=t&amp;amp;rct=j&amp;amp;q=&amp;amp;esrc=s&amp;amp;source=web&amp;amp;cd=&amp;amp;ved=2ahUKEwimpeWu_J37AhVpSGwGHYtFAUUQFnoECBQQAQ&amp;amp;url=https%3A%2F%2Fwww.thesaurus.com%2Fe%2Fgrammar%2Fbullet-point%2F&amp;amp;usg=AOvVaw36HovnqZUQ4N3tA4n6XIDp&quot; data-ctbtn=&quot;0&quot; data-ved=&quot;2ahUKEwimpeWu_J37AhVpSGwGHYtFAUUQFnoECBQQAQ&quot; data-usg=&quot;AOvVaw36HovnqZUQ4N3tA4n6XIDp&quot; data-jsarwt=&quot;1&quot; href=&quot;https://www.google.com/url?sa=t&amp;amp;rct=j&amp;amp;q=&amp;amp;esrc=s&amp;amp;source=web&amp;amp;cd=&amp;amp;ved=2ahUKEwimpeWu_J37AhVpSGwGHYtFAUUQFnoECBQQAQ&amp;amp;url=https%3A%2F%2Fwww.thesaurus.com%2Fe%2Fgrammar%2Fbullet-point%2F&amp;amp;usg=AOvVaw36HovnqZUQ4N3tA4n6XIDp&quot;&gt;&lt;h3 style=&quot;font-weight: 400; margin: 0px 0px 3px; padding: 5px 0px 0px; font-size: 20px; line-height: 1.3; display: inline-block;&quot; class=&quot;LC20lb MBeuO DKV0Md&quot;&gt;•&lt;/h3&gt;&lt;/a&gt;React Js" style="rounded=1;whiteSpace=wrap;html=1;fontFamily=Times New Roman;fontSize=18;" vertex="1" parent="1">
          <mxGeometry x="240" y="640" width="180" height="130" as="geometry" />
        </mxCell>
        <mxCell id="LL_x_WGqo3-1e6lpiuNf-11" value="Tools&lt;br&gt;&lt;a href=&quot;https://www.google.com/url?sa=t&amp;amp;rct=j&amp;amp;q=&amp;amp;esrc=s&amp;amp;source=web&amp;amp;cd=&amp;amp;ved=2ahUKEwimpeWu_J37AhVpSGwGHYtFAUUQFnoECBQQAQ&amp;amp;url=https%3A%2F%2Fwww.thesaurus.com%2Fe%2Fgrammar%2Fbullet-point%2F&amp;amp;usg=AOvVaw36HovnqZUQ4N3tA4n6XIDp&quot; data-jsarwt=&quot;1&quot; data-usg=&quot;AOvVaw36HovnqZUQ4N3tA4n6XIDp&quot; data-ved=&quot;2ahUKEwimpeWu_J37AhVpSGwGHYtFAUUQFnoECBQQAQ&quot; data-ctbtn=&quot;0&quot; data-cthref=&quot;/url?sa=t&amp;amp;rct=j&amp;amp;q=&amp;amp;esrc=s&amp;amp;source=web&amp;amp;cd=&amp;amp;ved=2ahUKEwimpeWu_J37AhVpSGwGHYtFAUUQFnoECBQQAQ&amp;amp;url=https%3A%2F%2Fwww.thesaurus.com%2Fe%2Fgrammar%2Fbullet-point%2F&amp;amp;usg=AOvVaw36HovnqZUQ4N3tA4n6XIDp&quot; data-jrwt=&quot;1&quot; style=&quot;color: rgb(26, 13, 171); -webkit-tap-highlight-color: rgba(0, 0, 0, 0.1); outline: 0px; font-family: arial, sans-serif; font-size: small; text-align: left; background-color: rgb(255, 255, 255);&quot;&gt;&lt;h3 class=&quot;LC20lb MBeuO DKV0Md&quot; style=&quot;font-weight: 400; margin: 0px 0px 3px; padding: 5px 0px 0px; font-size: 20px; line-height: 1.3; display: inline-block;&quot;&gt;•&lt;/h3&gt;&lt;/a&gt;&amp;nbsp;Java Spring Boot" style="rounded=1;whiteSpace=wrap;html=1;fontFamily=Times New Roman;fontSize=18;" vertex="1" parent="1">
          <mxGeometry x="440" y="645" width="180" height="120" as="geometry" />
        </mxCell>
        <mxCell id="LL_x_WGqo3-1e6lpiuNf-21" style="edgeStyle=orthogonalEdgeStyle;rounded=0;orthogonalLoop=1;jettySize=auto;html=1;exitX=0.5;exitY=1;exitDx=0;exitDy=0;fontFamily=Times New Roman;fontSize=11;" edge="1" parent="1" source="LL_x_WGqo3-1e6lpiuNf-12">
          <mxGeometry relative="1" as="geometry">
            <mxPoint x="737" y="710" as="targetPoint" />
          </mxGeometry>
        </mxCell>
        <mxCell id="LL_x_WGqo3-1e6lpiuNf-12" value="Tools&lt;br&gt;&lt;a href=&quot;https://www.google.com/url?sa=t&amp;amp;rct=j&amp;amp;q=&amp;amp;esrc=s&amp;amp;source=web&amp;amp;cd=&amp;amp;ved=2ahUKEwimpeWu_J37AhVpSGwGHYtFAUUQFnoECBQQAQ&amp;amp;url=https%3A%2F%2Fwww.thesaurus.com%2Fe%2Fgrammar%2Fbullet-point%2F&amp;amp;usg=AOvVaw36HovnqZUQ4N3tA4n6XIDp&quot; data-jsarwt=&quot;1&quot; data-usg=&quot;AOvVaw36HovnqZUQ4N3tA4n6XIDp&quot; data-ved=&quot;2ahUKEwimpeWu_J37AhVpSGwGHYtFAUUQFnoECBQQAQ&quot; data-ctbtn=&quot;0&quot; data-cthref=&quot;/url?sa=t&amp;amp;rct=j&amp;amp;q=&amp;amp;esrc=s&amp;amp;source=web&amp;amp;cd=&amp;amp;ved=2ahUKEwimpeWu_J37AhVpSGwGHYtFAUUQFnoECBQQAQ&amp;amp;url=https%3A%2F%2Fwww.thesaurus.com%2Fe%2Fgrammar%2Fbullet-point%2F&amp;amp;usg=AOvVaw36HovnqZUQ4N3tA4n6XIDp&quot; data-jrwt=&quot;1&quot; style=&quot;color: rgb(26, 13, 171); -webkit-tap-highlight-color: rgba(0, 0, 0, 0.1); outline: 0px; font-family: arial, sans-serif; font-size: small; text-align: left; background-color: rgb(255, 255, 255);&quot;&gt;&lt;h3 class=&quot;LC20lb MBeuO DKV0Md&quot; style=&quot;font-weight: 400; margin: 0px 0px 3px; padding: 5px 0px 0px; font-size: 20px; line-height: 1.3; display: inline-block;&quot;&gt;•&lt;/h3&gt;&lt;/a&gt;&amp;nbsp;PostGres SQL" style="rounded=1;whiteSpace=wrap;html=1;fontFamily=Times New Roman;fontSize=18;" vertex="1" parent="1">
          <mxGeometry x="647" y="645" width="180" height="120" as="geometry" />
        </mxCell>
        <mxCell id="LL_x_WGqo3-1e6lpiuNf-13" style="edgeStyle=orthogonalEdgeStyle;rounded=0;orthogonalLoop=1;jettySize=auto;html=1;exitX=0.5;exitY=1;exitDx=0;exitDy=0;fontFamily=Times New Roman;fontSize=18;" edge="1" parent="1" source="LL_x_WGqo3-1e6lpiuNf-9" target="LL_x_WGqo3-1e6lpiuNf-9">
          <mxGeometry relative="1" as="geometry" />
        </mxCell>
        <mxCell id="LL_x_WGqo3-1e6lpiuNf-14" value="&lt;font size=&quot;3&quot;&gt;To design the UI with HTML, CSS , React Js , to make Home&amp;nbsp; Pg , About pg, Market Search page , User Account Page, User Portfolio Page&lt;/font&gt;" style="shape=process;whiteSpace=wrap;html=1;backgroundOutline=1;fontFamily=Times New Roman;fontSize=18;" vertex="1" parent="1">
          <mxGeometry x="200" y="1240" width="230" height="290" as="geometry" />
        </mxCell>
        <mxCell id="LL_x_WGqo3-1e6lpiuNf-15" value="&lt;font size=&quot;3&quot;&gt;To fetch live stock cost , OHLC from NSE website or any NPM package for market.&lt;/font&gt;" style="shape=process;whiteSpace=wrap;html=1;backgroundOutline=1;fontFamily=Times New Roman;fontSize=18;" vertex="1" parent="1">
          <mxGeometry x="414" y="879" width="230" height="290" as="geometry" />
        </mxCell>
        <mxCell id="LL_x_WGqo3-1e6lpiuNf-16" value="&lt;font size=&quot;3&quot;&gt;To design the DB for users which include Account Details like&lt;b&gt;&lt;i&gt; DOB , PAN , Password , email ID&lt;/i&gt;&lt;/b&gt; in &lt;b&gt;&lt;i&gt;&lt;u&gt;User Account Section&lt;/u&gt;&lt;/i&gt;&lt;/b&gt; . And to &lt;b&gt;&lt;i&gt;list the stocks bought buy the user&lt;/i&gt;&lt;/b&gt; with &lt;b&gt;&lt;i&gt;his Buy cost and live cost&lt;/i&gt;&lt;/b&gt; in the &lt;i&gt;&lt;u&gt;&lt;b&gt;Portfolio Section&lt;/b&gt;&lt;/u&gt;&lt;/i&gt;&lt;/font&gt;" style="shape=process;whiteSpace=wrap;html=1;backgroundOutline=1;fontFamily=Times New Roman;fontSize=18;" vertex="1" parent="1">
          <mxGeometry x="630" y="1250" width="230" height="290" as="geometry" />
        </mxCell>
        <mxCell id="LL_x_WGqo3-1e6lpiuNf-17" value="&lt;font size=&quot;3&quot;&gt;To document the each and every process , like software usage , paraphernalia of the projects in word file and later transform it into presentable format for the day of presentation.&amp;nbsp;&lt;/font&gt;" style="shape=process;whiteSpace=wrap;html=1;backgroundOutline=1;fontFamily=Times New Roman;fontSize=18;" vertex="1" parent="1">
          <mxGeometry x="10" y="879" width="230" height="290" as="geometry" />
        </mxCell>
        <mxCell id="LL_x_WGqo3-1e6lpiuNf-18" value="" style="shape=flexArrow;endArrow=classic;html=1;rounded=0;fontFamily=Times New Roman;fontSize=11;endWidth=38;endSize=8.22;entryX=0.548;entryY=-0.01;entryDx=0;entryDy=0;entryPerimeter=0;" edge="1" parent="1" target="LL_x_WGqo3-1e6lpiuNf-14">
          <mxGeometry width="50" height="50" relative="1" as="geometry">
            <mxPoint x="329" y="770" as="sourcePoint" />
            <mxPoint x="330" y="1110" as="targetPoint" />
            <Array as="points" />
          </mxGeometry>
        </mxCell>
        <mxCell id="LL_x_WGqo3-1e6lpiuNf-19" value="" style="shape=flexArrow;endArrow=classic;html=1;rounded=0;fontFamily=Times New Roman;fontSize=11;entryX=0.5;entryY=0;entryDx=0;entryDy=0;" edge="1" parent="1" target="LL_x_WGqo3-1e6lpiuNf-16">
          <mxGeometry width="50" height="50" relative="1" as="geometry">
            <mxPoint x="740" y="770" as="sourcePoint" />
            <mxPoint x="460" y="1120" as="targetPoint" />
            <Array as="points" />
          </mxGeometry>
        </mxCell>
        <mxCell id="LL_x_WGqo3-1e6lpiuNf-25" value="" style="shape=flexArrow;endArrow=classic;html=1;rounded=0;fontFamily=Times New Roman;fontSize=11;exitX=0.5;exitY=1;exitDx=0;exitDy=0;entryX=0.5;entryY=0;entryDx=0;entryDy=0;" edge="1" parent="1" source="LL_x_WGqo3-1e6lpiuNf-11" target="LL_x_WGqo3-1e6lpiuNf-15">
          <mxGeometry width="50" height="50" relative="1" as="geometry">
            <mxPoint x="370" y="970" as="sourcePoint" />
            <mxPoint x="520" y="880" as="targetPoint" />
            <Array as="points">
              <mxPoint x="530" y="820" />
            </Array>
          </mxGeometry>
        </mxCell>
        <mxCell id="LL_x_WGqo3-1e6lpiuNf-26" value="" style="shape=flexArrow;endArrow=classic;html=1;rounded=0;fontFamily=Times New Roman;fontSize=11;exitX=0.5;exitY=1;exitDx=0;exitDy=0;" edge="1" parent="1" source="LL_x_WGqo3-1e6lpiuNf-9">
          <mxGeometry width="50" height="50" relative="1" as="geometry">
            <mxPoint x="410" y="870" as="sourcePoint" />
            <mxPoint x="115" y="880" as="targetPoint" />
          </mxGeometry>
        </mxCell>
        <mxCell id="LL_x_WGqo3-1e6lpiuNf-37" value="" style="shape=flexArrow;endArrow=classic;html=1;rounded=0;fontFamily=Times New Roman;fontSize=11;entryX=0.456;entryY=0;entryDx=0;entryDy=0;exitX=0.5;exitY=1;exitDx=0;exitDy=0;entryPerimeter=0;" edge="1" parent="1" source="LL_x_WGqo3-1e6lpiuNf-4" target="LL_x_WGqo3-1e6lpiuNf-11">
          <mxGeometry width="50" height="50" relative="1" as="geometry">
            <mxPoint x="410" y="610" as="sourcePoint" />
            <mxPoint x="460" y="560" as="targetPoint" />
          </mxGeometry>
        </mxCell>
        <mxCell id="LL_x_WGqo3-1e6lpiuNf-38" value="" style="shape=flexArrow;endArrow=classic;html=1;rounded=0;fontFamily=Times New Roman;fontSize=11;entryX=0.45;entryY=0.042;entryDx=0;entryDy=0;exitX=0.55;exitY=1.021;exitDx=0;exitDy=0;exitPerimeter=0;entryPerimeter=0;" edge="1" parent="1" source="LL_x_WGqo3-1e6lpiuNf-5" target="LL_x_WGqo3-1e6lpiuNf-12">
          <mxGeometry width="50" height="50" relative="1" as="geometry">
            <mxPoint x="410" y="610" as="sourcePoint" />
            <mxPoint x="460" y="560" as="targetPoint" />
          </mxGeometry>
        </mxCell>
        <mxCell id="LL_x_WGqo3-1e6lpiuNf-39" value="" style="shape=flexArrow;endArrow=classic;html=1;rounded=0;fontFamily=Times New Roman;fontSize=11;entryX=0.439;entryY=-0.038;entryDx=0;entryDy=0;exitX=0.5;exitY=1;exitDx=0;exitDy=0;entryPerimeter=0;" edge="1" parent="1" source="LL_x_WGqo3-1e6lpiuNf-3" target="LL_x_WGqo3-1e6lpiuNf-10">
          <mxGeometry width="50" height="50" relative="1" as="geometry">
            <mxPoint x="410" y="610" as="sourcePoint" />
            <mxPoint x="460" y="560" as="targetPoint" />
          </mxGeometry>
        </mxCell>
        <mxCell id="LL_x_WGqo3-1e6lpiuNf-40" value="" style="shape=flexArrow;endArrow=classic;html=1;rounded=0;fontFamily=Times New Roman;fontSize=11;" edge="1" parent="1">
          <mxGeometry width="50" height="50" relative="1" as="geometry">
            <mxPoint x="119.5" y="585" as="sourcePoint" />
            <mxPoint x="119.5" y="635" as="targetPoint" />
          </mxGeometry>
        </mxCell>
      </root>
    </mxGraphModel>
  </diagram>
</mxfile>
